<?xml version="1.0" standalone="no"?>
<!DOCTYPE svg PUBLIC "-//W3C//DTD SVG 20010904//EN"
 "http://www.w3.org/TR/2001/REC-SVG-20010904/DTD/svg10.dtd">
<svg version="1.0" xmlns="http://www.w3.org/2000/svg"
 width="379.000000pt" height="379.000000pt" viewBox="0 0 379.000000 379.000000"
 preserveAspectRatio="xMidYMid meet">
<metadata>
Created by potrace 1.11, written by Peter Selinger 2001-2013
</metadata>
<g transform="translate(0.000000,379.000000) scale(0.100000,-0.100000)"
fill="#000000" stroke="none">
<path d="M896 3766 c-21 -13 -49 -41 -62 -62 -21 -34 -24 -51 -24 -146 l0
-107 -238 -3 -239 -3 -40 -27 c-22 -15 -51 -44 -64 -65 l-24 -38 0 -1575 c0
-866 3 -1587 8 -1602 9 -35 61 -94 101 -116 29 -16 141 -17 1576 -17 1435 0
1547 1 1576 17 40 22 92 81 101 116 5 15 8 736 8 1603 l0 1575 -27 41 c-15 22
-44 51 -65 64 -37 23 -46 24 -275 27 l-238 3 0 106 c0 125 -18 169 -86 209
-36 21 -53 24 -144 24 -91 0 -108 -3 -144 -24 -68 -40 -86 -84 -86 -210 l0
-106 -620 0 -620 0 0 107 c0 94 -3 111 -24 147 -39 67 -85 86 -207 86 -91 0
-109 -3 -143 -24z m2074 -1417 c60 -27 98 -64 126 -124 l24 -50 0 -681 0 -682
-28 -53 c-31 -60 -93 -113 -150 -129 -24 -6 -276 -10 -707 -10 l-671 0 -274
-173 c-151 -95 -292 -183 -314 -196 l-38 -24 12 24 c7 13 57 102 111 197 l98
172 -142 0 c-78 0 -159 5 -179 10 -57 16 -119 69 -150 129 l-28 53 0 682 c0
663 1 682 21 726 27 60 64 98 124 126 l50 24 1035 0 c1020 0 1036 -1 1080 -21z"/>
<path d="M1074 2007 c-2 -7 -3 -65 -2 -128 l3 -114 820 0 820 0 0 125 0 125
-818 3 c-669 2 -819 0 -823 -11z"/>
<path d="M1074 1577 c-2 -7 -3 -65 -2 -128 l3 -114 820 0 820 0 0 125 0 125
-818 3 c-669 2 -819 0 -823 -11z"/>
<path d="M1074 1147 c-2 -7 -3 -65 -2 -128 l3 -114 543 -3 542 -2 0 130 0 130
-540 0 c-437 0 -542 -3 -546 -13z"/>
</g>
</svg>
